<svg width="28" height="29" viewBox="0 0 28 29" fill="none" xmlns="http://www.w3.org/2000/svg">
<path d="M3.5 29C2.5375 29 1.71383 28.6758 1.029 28.0273C0.343 27.3777 0 26.5971 0 25.6857V10.7714C0 10.2467 0.12425 9.74952 0.37275 9.28C0.620083 8.81048 0.9625 8.42381 1.4 8.12L11.9 0.662857C12.2208 0.441905 12.5562 0.27619 12.9062 0.165714C13.2563 0.0552379 13.6208 0 14 0C14.3792 0 14.7437 0.0552379 15.0938 0.165714C15.4438 0.27619 15.7792 0.441905 16.1 0.662857L26.6 8.12C27.0375 8.42381 27.3805 8.81048 27.629 9.28C27.8763 9.74952 28 10.2467 28 10.7714V25.6857C28 26.5971 27.6576 27.3777 26.9727 28.0273C26.2868 28.6758 25.4625 29 24.5 29H17.5V17.4H10.5V29H3.5Z" fill="#0476FF"/>
</svg>
